<mxfile host="app.diagrams.net" agent="Mozilla/5.0 (Windows NT 10.0; Win64; x64; rv:134.0) Gecko/20100101 Firefox/134.0" version="26.0.9">
  <diagram name="Pagina-1" id="24wl4rJfPtHlZv77M8ec">
    <mxGraphModel dx="1615" dy="871" grid="1" gridSize="10" guides="1" tooltips="1" connect="1" arrows="1" fold="1" page="1" pageScale="1" pageWidth="1200" pageHeight="1920" math="0" shadow="0">
      <root>
        <mxCell id="0" />
        <mxCell id="1" parent="0" />
        <mxCell id="Ht8Bc9fi52HaijCVLVB0-2" value="" style="shape=cube;whiteSpace=wrap;html=1;boundedLbl=1;backgroundOutline=1;darkOpacity=0.05;darkOpacity2=0.1;" parent="1" vertex="1">
          <mxGeometry x="160" y="40" width="380" height="200" as="geometry" />
        </mxCell>
        <mxCell id="Ht8Bc9fi52HaijCVLVB0-3" value="&lt;font style=&quot;font-size: 16px;&quot;&gt;Welcome page&lt;/font&gt;" style="text;html=1;align=left;verticalAlign=middle;whiteSpace=wrap;rounded=0;" parent="1" vertex="1">
          <mxGeometry x="190" y="60" width="170" height="30" as="geometry" />
        </mxCell>
        <mxCell id="Ht8Bc9fi52HaijCVLVB0-7" value="&lt;div&gt;Start Examination&lt;/div&gt;" style="rounded=0;whiteSpace=wrap;html=1;" parent="1" vertex="1">
          <mxGeometry x="270" y="130" width="175" height="45" as="geometry" />
        </mxCell>
        <mxCell id="Ht8Bc9fi52HaijCVLVB0-9" value="" style="shape=cube;whiteSpace=wrap;html=1;boundedLbl=1;backgroundOutline=1;darkOpacity=0.05;darkOpacity2=0.1;" parent="1" vertex="1">
          <mxGeometry x="600" y="40" width="380" height="200" as="geometry" />
        </mxCell>
        <mxCell id="Ht8Bc9fi52HaijCVLVB0-10" value="&lt;font style=&quot;font-size: 16px;&quot;&gt;Section 1&lt;/font&gt;" style="text;html=1;align=left;verticalAlign=middle;whiteSpace=wrap;rounded=0;" parent="1" vertex="1">
          <mxGeometry x="630" y="60" width="170" height="30" as="geometry" />
        </mxCell>
        <mxCell id="Ht8Bc9fi52HaijCVLVB0-34" value="Question 1" style="rounded=0;whiteSpace=wrap;html=1;" parent="1" vertex="1">
          <mxGeometry x="640" y="110" width="320" height="20" as="geometry" />
        </mxCell>
        <mxCell id="Ht8Bc9fi52HaijCVLVB0-35" value="Question 2" style="rounded=0;whiteSpace=wrap;html=1;" parent="1" vertex="1">
          <mxGeometry x="640" y="135" width="320" height="20" as="geometry" />
        </mxCell>
        <mxCell id="Ht8Bc9fi52HaijCVLVB0-36" value="Question n" style="rounded=0;whiteSpace=wrap;html=1;" parent="1" vertex="1">
          <mxGeometry x="639.5" y="165" width="320" height="20" as="geometry" />
        </mxCell>
        <mxCell id="Ht8Bc9fi52HaijCVLVB0-37" value="&lt;font&gt;...&lt;/font&gt;" style="text;html=1;align=center;verticalAlign=middle;whiteSpace=wrap;rounded=0;" parent="1" vertex="1">
          <mxGeometry x="771" y="150" width="60" height="15" as="geometry" />
        </mxCell>
        <mxCell id="Ht8Bc9fi52HaijCVLVB0-44" value="Question" style="rounded=0;whiteSpace=wrap;html=1;" parent="1" vertex="1">
          <mxGeometry x="160" y="490" width="130" height="20" as="geometry" />
        </mxCell>
        <mxCell id="Ht8Bc9fi52HaijCVLVB0-53" value="&lt;div&gt;Coding question&lt;/div&gt;" style="shape=cube;whiteSpace=wrap;html=1;boundedLbl=1;backgroundOutline=1;darkOpacity=0.05;darkOpacity2=0.1;verticalAlign=top;" parent="1" vertex="1">
          <mxGeometry x="360" y="560" width="290" height="194" as="geometry" />
        </mxCell>
        <mxCell id="Ht8Bc9fi52HaijCVLVB0-54" value="&lt;div&gt;Open choice question&lt;/div&gt;" style="shape=cube;whiteSpace=wrap;html=1;boundedLbl=1;backgroundOutline=1;darkOpacity=0.05;darkOpacity2=0.1;verticalAlign=top;" parent="1" vertex="1">
          <mxGeometry x="360.5" y="445" width="289.5" height="115" as="geometry" />
        </mxCell>
        <mxCell id="Ht8Bc9fi52HaijCVLVB0-55" value="Multiple choice question" style="shape=cube;whiteSpace=wrap;html=1;boundedLbl=1;backgroundOutline=1;darkOpacity=0.05;darkOpacity2=0.1;verticalAlign=top;" parent="1" vertex="1">
          <mxGeometry x="360.5" y="300" width="289.5" height="150" as="geometry" />
        </mxCell>
        <mxCell id="Ht8Bc9fi52HaijCVLVB0-56" value="Option 1" style="rounded=0;whiteSpace=wrap;html=1;" parent="1" vertex="1">
          <mxGeometry x="400.5" y="350" width="229.5" height="25" as="geometry" />
        </mxCell>
        <mxCell id="Ht8Bc9fi52HaijCVLVB0-57" value="&lt;div&gt;Option 2&lt;/div&gt;" style="rounded=0;whiteSpace=wrap;html=1;" parent="1" vertex="1">
          <mxGeometry x="400.5" y="375" width="229.5" height="25" as="geometry" />
        </mxCell>
        <mxCell id="Ht8Bc9fi52HaijCVLVB0-58" value="Option n" style="rounded=0;whiteSpace=wrap;html=1;" parent="1" vertex="1">
          <mxGeometry x="400.5" y="415" width="229.5" height="25" as="geometry" />
        </mxCell>
        <mxCell id="Ht8Bc9fi52HaijCVLVB0-62" value="&lt;font&gt;...&lt;/font&gt;" style="text;html=1;align=center;verticalAlign=middle;whiteSpace=wrap;rounded=0;" parent="1" vertex="1">
          <mxGeometry x="490" y="395" width="60" height="15" as="geometry" />
        </mxCell>
        <mxCell id="Ht8Bc9fi52HaijCVLVB0-63" value="Answer" style="rounded=0;whiteSpace=wrap;html=1;" parent="1" vertex="1">
          <mxGeometry x="400.5" y="495" width="229.5" height="35" as="geometry" />
        </mxCell>
        <mxCell id="Ht8Bc9fi52HaijCVLVB0-65" value="Code changes" style="rounded=0;whiteSpace=wrap;html=1;" parent="1" vertex="1">
          <mxGeometry x="400.5" y="610" width="229.5" height="64" as="geometry" />
        </mxCell>
        <mxCell id="Ht8Bc9fi52HaijCVLVB0-66" value="&lt;div&gt;Available Tests&lt;/div&gt;" style="rounded=0;whiteSpace=wrap;html=1;" parent="1" vertex="1">
          <mxGeometry x="400.5" y="684" width="229.5" height="60" as="geometry" />
        </mxCell>
        <mxCell id="Ht8Bc9fi52HaijCVLVB0-68" value="" style="endArrow=classic;dashed=1;html=1;rounded=0;entryX=0;entryY=0.2;entryDx=0;entryDy=0;entryPerimeter=0;fillColor=#dae8fc;strokeColor=#6c8ebf;endFill=1;" parent="1" target="Ht8Bc9fi52HaijCVLVB0-55" edge="1">
          <mxGeometry width="50" height="50" relative="1" as="geometry">
            <mxPoint x="330" y="480" as="sourcePoint" />
            <mxPoint x="240" y="490" as="targetPoint" />
            <Array as="points">
              <mxPoint x="330" y="330" />
            </Array>
          </mxGeometry>
        </mxCell>
        <mxCell id="Ht8Bc9fi52HaijCVLVB0-69" value="" style="endArrow=classic;dashed=1;html=1;rounded=0;entryX=-0.005;entryY=0.33;entryDx=0;entryDy=0;entryPerimeter=0;fillColor=#dae8fc;strokeColor=#6c8ebf;endFill=1;" parent="1" target="Ht8Bc9fi52HaijCVLVB0-53" edge="1">
          <mxGeometry width="50" height="50" relative="1" as="geometry">
            <mxPoint x="330" y="500" as="sourcePoint" />
            <mxPoint x="399.4999999999998" y="625" as="targetPoint" />
            <Array as="points">
              <mxPoint x="330" y="624" />
            </Array>
          </mxGeometry>
        </mxCell>
        <mxCell id="ya-eMkvV3Ybm7PLA_Z_5-2" value="Next Question" style="rounded=0;whiteSpace=wrap;html=1;" vertex="1" parent="1">
          <mxGeometry x="831" y="200" width="80" height="30" as="geometry" />
        </mxCell>
        <mxCell id="ya-eMkvV3Ybm7PLA_Z_5-17" value="Question Picker" style="rounded=0;whiteSpace=wrap;html=1;" vertex="1" parent="1">
          <mxGeometry x="730" y="200" width="90" height="30" as="geometry" />
        </mxCell>
        <mxCell id="ya-eMkvV3Ybm7PLA_Z_5-18" value="me at the end of this week" style="shape=umlActor;verticalLabelPosition=bottom;verticalAlign=top;html=1;outlineConnect=0;" vertex="1" parent="1">
          <mxGeometry x="120" y="590" width="30" height="60" as="geometry" />
        </mxCell>
        <mxCell id="ya-eMkvV3Ybm7PLA_Z_5-19" value="" style="endArrow=none;html=1;rounded=0;exitX=0.5;exitY=0;exitDx=0;exitDy=0;exitPerimeter=0;" edge="1" parent="1" source="ya-eMkvV3Ybm7PLA_Z_5-18">
          <mxGeometry width="50" height="50" relative="1" as="geometry">
            <mxPoint x="135" y="670" as="sourcePoint" />
            <mxPoint x="134" y="40" as="targetPoint" />
          </mxGeometry>
        </mxCell>
        <mxCell id="ya-eMkvV3Ybm7PLA_Z_5-20" value="" style="shape=cube;whiteSpace=wrap;html=1;boundedLbl=1;backgroundOutline=1;darkOpacity=0.05;darkOpacity2=0.1;" vertex="1" parent="1">
          <mxGeometry x="1040" y="40" width="380" height="200" as="geometry" />
        </mxCell>
        <mxCell id="ya-eMkvV3Ybm7PLA_Z_5-21" value="&lt;font style=&quot;font-size: 16px;&quot;&gt;Section 2&lt;br&gt;&lt;/font&gt;" style="text;html=1;align=left;verticalAlign=middle;whiteSpace=wrap;rounded=0;" vertex="1" parent="1">
          <mxGeometry x="1070" y="60" width="170" height="30" as="geometry" />
        </mxCell>
        <mxCell id="ya-eMkvV3Ybm7PLA_Z_5-22" value="Question 1" style="rounded=0;whiteSpace=wrap;html=1;" vertex="1" parent="1">
          <mxGeometry x="1080" y="110" width="320" height="20" as="geometry" />
        </mxCell>
        <mxCell id="ya-eMkvV3Ybm7PLA_Z_5-23" value="Question 2" style="rounded=0;whiteSpace=wrap;html=1;" vertex="1" parent="1">
          <mxGeometry x="1080" y="135" width="320" height="20" as="geometry" />
        </mxCell>
        <mxCell id="ya-eMkvV3Ybm7PLA_Z_5-24" value="Question n" style="rounded=0;whiteSpace=wrap;html=1;" vertex="1" parent="1">
          <mxGeometry x="1079.5" y="165" width="320" height="20" as="geometry" />
        </mxCell>
        <mxCell id="ya-eMkvV3Ybm7PLA_Z_5-25" value="&lt;font&gt;...&lt;/font&gt;" style="text;html=1;align=center;verticalAlign=middle;whiteSpace=wrap;rounded=0;" vertex="1" parent="1">
          <mxGeometry x="1211" y="150" width="60" height="15" as="geometry" />
        </mxCell>
        <mxCell id="ya-eMkvV3Ybm7PLA_Z_5-29" value="&lt;font&gt;&amp;nbsp;...&lt;/font&gt;" style="text;html=1;align=center;verticalAlign=middle;whiteSpace=wrap;rounded=0;fontSize=50;fontStyle=1" vertex="1" parent="1">
          <mxGeometry x="1260" y="260" width="110" height="52.5" as="geometry" />
        </mxCell>
        <mxCell id="ya-eMkvV3Ybm7PLA_Z_5-30" value="" style="endArrow=classic;dashed=1;html=1;rounded=0;entryX=0;entryY=0.2;entryDx=0;entryDy=0;entryPerimeter=0;fillColor=#dae8fc;strokeColor=#6c8ebf;endFill=1;exitX=1;exitY=0.5;exitDx=0;exitDy=0;" edge="1" parent="1" source="Ht8Bc9fi52HaijCVLVB0-44">
          <mxGeometry width="50" height="50" relative="1" as="geometry">
            <mxPoint x="290" y="632.5" as="sourcePoint" />
            <mxPoint x="360" y="482.5" as="targetPoint" />
            <Array as="points">
              <mxPoint x="330" y="500" />
              <mxPoint x="330" y="483" />
            </Array>
          </mxGeometry>
        </mxCell>
        <mxCell id="ya-eMkvV3Ybm7PLA_Z_5-31" value="" style="shape=cube;whiteSpace=wrap;html=1;boundedLbl=1;backgroundOutline=1;darkOpacity=0.05;darkOpacity2=0.1;" vertex="1" parent="1">
          <mxGeometry x="1040" y="360" width="380" height="200" as="geometry" />
        </mxCell>
        <mxCell id="ya-eMkvV3Ybm7PLA_Z_5-32" value="&lt;div&gt;&lt;font style=&quot;font-size: 16px;&quot;&gt;Section n&lt;/font&gt;&lt;/div&gt;" style="text;html=1;align=left;verticalAlign=middle;whiteSpace=wrap;rounded=0;" vertex="1" parent="1">
          <mxGeometry x="1070" y="380" width="170" height="30" as="geometry" />
        </mxCell>
        <mxCell id="ya-eMkvV3Ybm7PLA_Z_5-33" value="Question 1" style="rounded=0;whiteSpace=wrap;html=1;" vertex="1" parent="1">
          <mxGeometry x="1080" y="430" width="320" height="20" as="geometry" />
        </mxCell>
        <mxCell id="ya-eMkvV3Ybm7PLA_Z_5-34" value="Question 2" style="rounded=0;whiteSpace=wrap;html=1;" vertex="1" parent="1">
          <mxGeometry x="1080" y="455" width="320" height="20" as="geometry" />
        </mxCell>
        <mxCell id="ya-eMkvV3Ybm7PLA_Z_5-35" value="Question n" style="rounded=0;whiteSpace=wrap;html=1;" vertex="1" parent="1">
          <mxGeometry x="1079.5" y="485" width="320" height="20" as="geometry" />
        </mxCell>
        <mxCell id="ya-eMkvV3Ybm7PLA_Z_5-36" value="&lt;font&gt;...&lt;/font&gt;" style="text;html=1;align=center;verticalAlign=middle;whiteSpace=wrap;rounded=0;" vertex="1" parent="1">
          <mxGeometry x="1211" y="470" width="60" height="15" as="geometry" />
        </mxCell>
        <mxCell id="ya-eMkvV3Ybm7PLA_Z_5-39" value="" style="shape=cube;whiteSpace=wrap;html=1;boundedLbl=1;backgroundOutline=1;darkOpacity=0.05;darkOpacity2=0.1;" vertex="1" parent="1">
          <mxGeometry x="1040" y="610" width="380" height="190" as="geometry" />
        </mxCell>
        <mxCell id="ya-eMkvV3Ybm7PLA_Z_5-40" value="&lt;div&gt;&lt;font style=&quot;font-size: 16px;&quot;&gt;Finish Page&lt;/font&gt;&lt;/div&gt;" style="text;html=1;align=left;verticalAlign=middle;whiteSpace=wrap;rounded=0;" vertex="1" parent="1">
          <mxGeometry x="1070" y="630" width="170" height="30" as="geometry" />
        </mxCell>
        <mxCell id="ya-eMkvV3Ybm7PLA_Z_5-42" value="Question Picker" style="swimlane;fontStyle=0;childLayout=stackLayout;horizontal=1;startSize=30;horizontalStack=0;resizeParent=1;resizeParentMax=0;resizeLast=0;collapsible=1;marginBottom=0;whiteSpace=wrap;html=1;" vertex="1" parent="1">
          <mxGeometry x="730" y="320" width="171" height="150" as="geometry" />
        </mxCell>
        <mxCell id="ya-eMkvV3Ybm7PLA_Z_5-43" value="Section 1" style="text;strokeColor=none;fillColor=none;align=left;verticalAlign=middle;spacingLeft=4;spacingRight=4;overflow=hidden;points=[[0,0.5],[1,0.5]];portConstraint=eastwest;rotatable=0;whiteSpace=wrap;html=1;" vertex="1" parent="ya-eMkvV3Ybm7PLA_Z_5-42">
          <mxGeometry y="30" width="171" height="30" as="geometry" />
        </mxCell>
        <mxCell id="ya-eMkvV3Ybm7PLA_Z_5-44" value="Section 2" style="text;strokeColor=none;fillColor=none;align=left;verticalAlign=middle;spacingLeft=4;spacingRight=4;overflow=hidden;points=[[0,0.5],[1,0.5]];portConstraint=eastwest;rotatable=0;whiteSpace=wrap;html=1;" vertex="1" parent="ya-eMkvV3Ybm7PLA_Z_5-42">
          <mxGeometry y="60" width="171" height="30" as="geometry" />
        </mxCell>
        <mxCell id="ya-eMkvV3Ybm7PLA_Z_5-45" value="..." style="text;strokeColor=none;fillColor=none;align=left;verticalAlign=middle;spacingLeft=4;spacingRight=4;overflow=hidden;points=[[0,0.5],[1,0.5]];portConstraint=eastwest;rotatable=0;whiteSpace=wrap;html=1;" vertex="1" parent="ya-eMkvV3Ybm7PLA_Z_5-42">
          <mxGeometry y="90" width="171" height="30" as="geometry" />
        </mxCell>
        <mxCell id="ya-eMkvV3Ybm7PLA_Z_5-46" value="&lt;div&gt;Section n&lt;/div&gt;" style="text;strokeColor=none;fillColor=none;align=left;verticalAlign=middle;spacingLeft=4;spacingRight=4;overflow=hidden;points=[[0,0.5],[1,0.5]];portConstraint=eastwest;rotatable=0;whiteSpace=wrap;html=1;" vertex="1" parent="ya-eMkvV3Ybm7PLA_Z_5-42">
          <mxGeometry y="120" width="171" height="30" as="geometry" />
        </mxCell>
        <mxCell id="ya-eMkvV3Ybm7PLA_Z_5-47" value="Finnish" style="rounded=0;whiteSpace=wrap;html=1;" vertex="1" parent="1">
          <mxGeometry x="920" y="200" width="50" height="30" as="geometry" />
        </mxCell>
        <mxCell id="ya-eMkvV3Ybm7PLA_Z_5-49" value="Next Question" style="rounded=0;whiteSpace=wrap;html=1;" vertex="1" parent="1">
          <mxGeometry x="1271" y="200" width="80" height="30" as="geometry" />
        </mxCell>
        <mxCell id="ya-eMkvV3Ybm7PLA_Z_5-50" value="Question Picker" style="rounded=0;whiteSpace=wrap;html=1;" vertex="1" parent="1">
          <mxGeometry x="1170" y="200" width="90" height="30" as="geometry" />
        </mxCell>
        <mxCell id="ya-eMkvV3Ybm7PLA_Z_5-51" value="Finnish" style="rounded=0;whiteSpace=wrap;html=1;" vertex="1" parent="1">
          <mxGeometry x="1360" y="200" width="50" height="30" as="geometry" />
        </mxCell>
        <mxCell id="ya-eMkvV3Ybm7PLA_Z_5-52" value="Next Question" style="rounded=0;whiteSpace=wrap;html=1;" vertex="1" parent="1">
          <mxGeometry x="1271" y="520" width="80" height="30" as="geometry" />
        </mxCell>
        <mxCell id="ya-eMkvV3Ybm7PLA_Z_5-53" value="Question Picker" style="rounded=0;whiteSpace=wrap;html=1;" vertex="1" parent="1">
          <mxGeometry x="1170" y="520" width="90" height="30" as="geometry" />
        </mxCell>
        <mxCell id="ya-eMkvV3Ybm7PLA_Z_5-54" value="Finnish" style="rounded=0;whiteSpace=wrap;html=1;" vertex="1" parent="1">
          <mxGeometry x="1360" y="520" width="50" height="30" as="geometry" />
        </mxCell>
        <mxCell id="ya-eMkvV3Ybm7PLA_Z_5-55" value="" style="endArrow=classic;html=1;rounded=0;exitX=1;exitY=0.5;exitDx=0;exitDy=0;entryX=0;entryY=0.563;entryDx=0;entryDy=0;entryPerimeter=0;fillColor=#dae8fc;strokeColor=#6c8ebf;" edge="1" parent="1" source="Ht8Bc9fi52HaijCVLVB0-7" target="Ht8Bc9fi52HaijCVLVB0-9">
          <mxGeometry width="50" height="50" relative="1" as="geometry">
            <mxPoint x="460" y="210" as="sourcePoint" />
            <mxPoint x="510" y="160" as="targetPoint" />
          </mxGeometry>
        </mxCell>
        <mxCell id="ya-eMkvV3Ybm7PLA_Z_5-56" value="" style="endArrow=classic;html=1;rounded=0;exitX=0.482;exitY=1.001;exitDx=0;exitDy=0;entryX=0.004;entryY=0.577;entryDx=0;entryDy=0;entryPerimeter=0;exitPerimeter=0;fillColor=#dae8fc;strokeColor=#6c8ebf;" edge="1" parent="1" source="ya-eMkvV3Ybm7PLA_Z_5-2" target="ya-eMkvV3Ybm7PLA_Z_5-20">
          <mxGeometry width="50" height="50" relative="1" as="geometry">
            <mxPoint x="510" y="310" as="sourcePoint" />
            <mxPoint x="560" y="260" as="targetPoint" />
            <Array as="points">
              <mxPoint x="870" y="270" />
              <mxPoint x="1020" y="270" />
              <mxPoint x="1020" y="155" />
            </Array>
          </mxGeometry>
        </mxCell>
        <mxCell id="ya-eMkvV3Ybm7PLA_Z_5-57" value="" style="endArrow=classic;html=1;rounded=0;exitX=0.613;exitY=1;exitDx=0;exitDy=0;exitPerimeter=0;entryX=0.545;entryY=0.381;entryDx=0;entryDy=0;entryPerimeter=0;fillColor=#dae8fc;strokeColor=#6c8ebf;" edge="1" parent="1" source="ya-eMkvV3Ybm7PLA_Z_5-49" target="ya-eMkvV3Ybm7PLA_Z_5-29">
          <mxGeometry width="50" height="50" relative="1" as="geometry">
            <mxPoint x="1070" y="360" as="sourcePoint" />
            <mxPoint x="1370" y="280" as="targetPoint" />
            <Array as="points">
              <mxPoint x="1320" y="250" />
            </Array>
          </mxGeometry>
        </mxCell>
        <mxCell id="ya-eMkvV3Ybm7PLA_Z_5-58" value="" style="endArrow=classic;html=1;rounded=0;entryX=0.869;entryY=0.007;entryDx=0;entryDy=0;entryPerimeter=0;fillColor=#dae8fc;strokeColor=#6c8ebf;" edge="1" parent="1">
          <mxGeometry width="50" height="50" relative="1" as="geometry">
            <mxPoint x="1320" y="318.6" as="sourcePoint" />
            <mxPoint x="1320.22" y="359.99999999999966" as="targetPoint" />
          </mxGeometry>
        </mxCell>
        <mxCell id="ya-eMkvV3Ybm7PLA_Z_5-59" value="" style="endArrow=classic;html=1;rounded=0;exitX=0.5;exitY=1;exitDx=0;exitDy=0;entryX=0.216;entryY=1.01;entryDx=0;entryDy=0;entryPerimeter=0;fillColor=#dae8fc;strokeColor=#6c8ebf;" edge="1" parent="1" source="ya-eMkvV3Ybm7PLA_Z_5-52" target="Ht8Bc9fi52HaijCVLVB0-9">
          <mxGeometry width="50" height="50" relative="1" as="geometry">
            <mxPoint x="1090" y="610" as="sourcePoint" />
            <mxPoint x="1140" y="560" as="targetPoint" />
            <Array as="points">
              <mxPoint x="1311" y="600" />
              <mxPoint x="680" y="600" />
            </Array>
          </mxGeometry>
        </mxCell>
        <mxCell id="ya-eMkvV3Ybm7PLA_Z_5-60" value="" style="endArrow=none;html=1;rounded=0;exitX=1;exitY=0.5;exitDx=0;exitDy=0;startFill=0;fillColor=#dae8fc;strokeColor=#6c8ebf;" edge="1" parent="1" source="ya-eMkvV3Ybm7PLA_Z_5-51">
          <mxGeometry width="50" height="50" relative="1" as="geometry">
            <mxPoint x="1100" y="300" as="sourcePoint" />
            <mxPoint x="1460" y="215" as="targetPoint" />
          </mxGeometry>
        </mxCell>
        <mxCell id="ya-eMkvV3Ybm7PLA_Z_5-61" value="" style="endArrow=classic;html=1;rounded=0;entryX=0;entryY=0;entryDx=380;entryDy=105;entryPerimeter=0;fillColor=#dae8fc;strokeColor=#6c8ebf;" edge="1" parent="1" target="ya-eMkvV3Ybm7PLA_Z_5-39">
          <mxGeometry width="50" height="50" relative="1" as="geometry">
            <mxPoint x="1460" y="20" as="sourcePoint" />
            <mxPoint x="1150" y="320" as="targetPoint" />
            <Array as="points">
              <mxPoint x="1460" y="715" />
            </Array>
          </mxGeometry>
        </mxCell>
        <mxCell id="ya-eMkvV3Ybm7PLA_Z_5-62" value="" style="endArrow=none;html=1;rounded=0;exitX=1.006;exitY=0.602;exitDx=0;exitDy=0;startFill=0;exitPerimeter=0;fillColor=#dae8fc;strokeColor=#6c8ebf;" edge="1" parent="1" source="ya-eMkvV3Ybm7PLA_Z_5-47">
          <mxGeometry width="50" height="50" relative="1" as="geometry">
            <mxPoint x="970" y="217.5" as="sourcePoint" />
            <mxPoint x="1460" y="22.5" as="targetPoint" />
            <Array as="points">
              <mxPoint x="1000" y="218" />
              <mxPoint x="1000" y="23" />
            </Array>
          </mxGeometry>
        </mxCell>
        <mxCell id="ya-eMkvV3Ybm7PLA_Z_5-63" value="" style="endArrow=classic;html=1;rounded=0;entryX=0.235;entryY=1.012;entryDx=0;entryDy=0;entryPerimeter=0;fillColor=#dae8fc;strokeColor=#6c8ebf;" edge="1" parent="1" target="ya-eMkvV3Ybm7PLA_Z_5-46">
          <mxGeometry width="50" height="50" relative="1" as="geometry">
            <mxPoint x="1210" y="551" as="sourcePoint" />
            <mxPoint x="960" y="540" as="targetPoint" />
            <Array as="points">
              <mxPoint x="1210" y="580" />
              <mxPoint x="770" y="580" />
            </Array>
          </mxGeometry>
        </mxCell>
        <mxCell id="ya-eMkvV3Ybm7PLA_Z_5-64" value="" style="endArrow=classic;html=1;rounded=0;entryX=-0.002;entryY=0.477;entryDx=0;entryDy=0;entryPerimeter=0;fillColor=#dae8fc;strokeColor=#6c8ebf;" edge="1" parent="1" source="ya-eMkvV3Ybm7PLA_Z_5-46" target="ya-eMkvV3Ybm7PLA_Z_5-31">
          <mxGeometry width="50" height="50" relative="1" as="geometry">
            <mxPoint x="1070" y="470" as="sourcePoint" />
            <mxPoint x="1120" y="420" as="targetPoint" />
          </mxGeometry>
        </mxCell>
        <mxCell id="ya-eMkvV3Ybm7PLA_Z_5-65" value="" style="endArrow=classic;html=1;rounded=0;exitX=1;exitY=0.5;exitDx=0;exitDy=0;entryX=0.191;entryY=1.002;entryDx=0;entryDy=0;entryPerimeter=0;fillColor=#dae8fc;strokeColor=#6c8ebf;" edge="1" parent="1" source="ya-eMkvV3Ybm7PLA_Z_5-44" target="ya-eMkvV3Ybm7PLA_Z_5-20">
          <mxGeometry width="50" height="50" relative="1" as="geometry">
            <mxPoint x="1070" y="440" as="sourcePoint" />
            <mxPoint x="1120" y="390" as="targetPoint" />
            <Array as="points">
              <mxPoint x="990" y="395" />
            </Array>
          </mxGeometry>
        </mxCell>
        <mxCell id="ya-eMkvV3Ybm7PLA_Z_5-66" value="" style="endArrow=classic;html=1;rounded=0;exitX=0.536;exitY=1.001;exitDx=0;exitDy=0;entryX=1.014;entryY=0.131;entryDx=0;entryDy=0;entryPerimeter=0;fillColor=#dae8fc;strokeColor=#6c8ebf;exitPerimeter=0;" edge="1" parent="1" source="ya-eMkvV3Ybm7PLA_Z_5-50" target="ya-eMkvV3Ybm7PLA_Z_5-42">
          <mxGeometry width="50" height="50" relative="1" as="geometry">
            <mxPoint x="1070" y="390" as="sourcePoint" />
            <mxPoint x="1120" y="340" as="targetPoint" />
            <Array as="points">
              <mxPoint x="1130" y="340" />
            </Array>
          </mxGeometry>
        </mxCell>
        <mxCell id="ya-eMkvV3Ybm7PLA_Z_5-67" value="" style="endArrow=classic;html=1;rounded=0;exitX=0.5;exitY=1;exitDx=0;exitDy=0;fillColor=#dae8fc;strokeColor=#6c8ebf;" edge="1" parent="1" source="ya-eMkvV3Ybm7PLA_Z_5-17">
          <mxGeometry width="50" height="50" relative="1" as="geometry">
            <mxPoint x="930" y="410" as="sourcePoint" />
            <mxPoint x="775" y="320" as="targetPoint" />
          </mxGeometry>
        </mxCell>
        <mxCell id="ya-eMkvV3Ybm7PLA_Z_5-68" value="" style="endArrow=classic;html=1;rounded=0;exitX=-0.004;exitY=0.644;exitDx=0;exitDy=0;fillColor=#dae8fc;strokeColor=#6c8ebf;exitPerimeter=0;" edge="1" parent="1" source="ya-eMkvV3Ybm7PLA_Z_5-43">
          <mxGeometry width="50" height="50" relative="1" as="geometry">
            <mxPoint x="650" y="425" as="sourcePoint" />
            <mxPoint x="700" y="244" as="targetPoint" />
            <Array as="points">
              <mxPoint x="700" y="370" />
            </Array>
          </mxGeometry>
        </mxCell>
        <mxCell id="ya-eMkvV3Ybm7PLA_Z_5-69" value="" style="endArrow=none;html=1;rounded=0;exitX=1;exitY=0.5;exitDx=0;exitDy=0;startFill=0;fillColor=#dae8fc;strokeColor=#6c8ebf;" edge="1" parent="1">
          <mxGeometry width="50" height="50" relative="1" as="geometry">
            <mxPoint x="1410" y="534.6" as="sourcePoint" />
            <mxPoint x="1460" y="534.6" as="targetPoint" />
          </mxGeometry>
        </mxCell>
      </root>
    </mxGraphModel>
  </diagram>
</mxfile>
